<svg width="152" height="42" viewBox="0 0 152 42" fill="none" xmlns="http://www.w3.org/2000/svg">
<path d="M4.70383 24.553C4.70383 25.0919 4.47582 25.2992 3.87472 25.2992H2.98344C2.40306 25.2992 1.98851 25.1541 1.76051 24.8847C1.55323 24.6359 1.47032 24.2421 1.55323 23.7447L1.80197 22.0243H0.807041L0.579037 23.5581C0.454671 24.4494 0.620494 25.1956 1.0765 25.7138C1.51178 26.2112 2.15433 26.46 2.98344 26.46H3.87472C5.03547 26.46 5.7402 25.7345 5.7402 24.553V20.6562H4.70383V24.553Z" fill="#026C68"/>
<path d="M3.72942 20.1797H2.63086V21.3612H3.72942V20.1797Z" fill="#026C68"/>
<path d="M28.1264 23.1648C28.1264 23.372 28.0849 23.5171 27.9813 23.5793C27.8777 23.6622 27.7119 23.6829 27.4424 23.6208L26.7377 23.4757C26.3853 23.3928 26.3231 23.2891 26.3231 23.0404V20.8847H25.2867V23.0404V23.2062C25.2453 23.3306 25.1416 23.4342 24.6649 23.4342H24.3333C23.7529 23.4342 23.5042 23.2269 23.5042 22.688V21.0713H22.4678V22.688C22.4678 22.8331 22.4678 22.9989 22.5092 23.1648C22.302 23.3306 21.9703 23.4342 21.5765 23.4342H20.7267C20.395 23.4342 20.2292 23.3928 20.1463 23.3098V22.916C20.1463 21.2993 19.2135 20.3665 17.5968 20.3665H12.4149V20.2214C12.4149 19.8069 12.5393 19.5789 12.9124 19.3094L14.5498 18.1487L14.0524 17.2781L12.3942 18.4389C11.7931 18.8534 11.5029 19.4338 11.5029 20.2007V21.4029H17.5968C18.6539 21.4029 19.1306 21.8589 19.1306 22.916V23.1855C19.1306 23.372 19.0892 23.4342 18.8197 23.4342H8.33157C8.04139 23.4342 7.93775 23.372 7.93775 22.9782V17.1123H6.90137V22.9782C6.90137 23.9731 7.46101 24.595 8.33157 24.595H18.8197C19.3586 24.595 19.6903 24.3669 19.8561 24.1389C20.0634 24.4499 20.3536 24.595 20.7267 24.595H21.5765C22.1569 24.595 22.5921 24.4084 22.9031 24.0353C23.2347 24.4084 23.7114 24.595 24.3125 24.595H24.6442C25.0587 24.595 25.4111 24.4499 25.6391 24.1389C25.8464 24.3669 26.1158 24.512 26.4475 24.595L27.1522 24.74C27.318 24.7815 27.4839 24.8022 27.6289 24.8022C27.9606 24.8022 28.2715 24.6986 28.4995 24.5121C28.8726 24.2219 29.0591 23.7244 29.0591 23.144V20.3458H28.0228V23.144L28.1264 23.1648Z" fill="#026C68"/>
<path d="M31.2971 26.2316C31.2971 25.8585 31.4215 25.7134 31.7324 25.7134H32.3335V25.1123H31.7324C31.1106 25.1123 30.7375 25.5269 30.7375 26.2316V26.2731H30.4473V26.8741H32.4371V26.2731H31.2971V26.2316Z" fill="#026C68"/>
<path d="M33.9503 23.0811C33.9503 23.2676 33.8881 23.4542 33.4943 23.4542H29.8877V24.6357H33.4943C34.3856 24.6357 34.966 24.0138 34.966 23.0811V17.0908H33.9296V23.0811H33.9503Z" fill="#026C68"/>
<path d="M32.6031 22.9774L31.6082 18.293L30.6133 18.5624L31.5253 22.9774H32.6031Z" fill="#026C68"/>
<path d="M37.4739 17.1328H36.4375V24.6362H37.4739V17.1328Z" fill="#026C68"/>
<path d="M40.5423 20.2004H40.4801C39.2986 20.2004 38.4902 21.0295 38.4902 22.2732V22.5426C38.4902 23.7863 39.3193 24.6361 40.5423 24.6361H41.4957V24.7398C41.4957 25.0921 41.4128 25.1958 40.791 25.3201L38.7597 25.7761L38.9877 26.7918L41.019 26.3358C41.6615 26.2114 42.5114 25.9005 42.5114 24.719V22.2524C42.5114 21.0088 41.703 20.1797 40.5215 20.1797L40.5423 20.2004ZM39.5266 22.2732C39.5266 21.6513 39.8583 21.299 40.4801 21.299H40.5423C41.1641 21.299 41.4957 21.6306 41.4957 22.2732V23.5168H40.5423C39.8997 23.5168 39.5266 23.1645 39.5266 22.5426V22.2732Z" fill="#026C68"/>
<path d="M53.0198 23.4546H48.1489C47.2368 23.4546 46.843 23.0815 46.843 22.2317V20.8015H45.8066V22.2317C45.8066 23.7448 46.6772 24.6361 48.1489 24.6361H54.0355V20.1797H52.9991V23.4546H53.0198Z" fill="#026C68"/>
<path d="M51.3206 19.4746H50.2842V20.6561H51.3206V19.4746Z" fill="#026C68"/>
<path d="M49.9731 19.4746H48.916V20.6561H49.9731V19.4746Z" fill="#026C68"/>
<path d="M60.0881 25.5068H59.0518V26.6883H60.0881V25.5068Z" fill="#026C68"/>
<path d="M58.7202 25.5068H57.6631V26.6883H58.7202V25.5068Z" fill="#026C68"/>
<path d="M59.5494 23.206V20.1798H58.513V23.206C58.513 23.3925 58.4716 23.4547 58.1814 23.4547H56.689C56.3988 23.4547 56.2952 23.3925 56.2952 22.9987V17.1328H55.2588V22.9987C55.2588 23.9936 55.8184 24.6155 56.689 24.6155H58.1814C59.1763 24.6155 59.5494 23.8693 59.5494 23.1853V23.206Z" fill="#026C68"/>
<path d="M70.5556 25.5684H69.457V26.7498H70.5556V25.5684Z" fill="#026C68"/>
<path d="M73.0008 23.0813C73.0008 23.2679 72.9386 23.4544 72.5448 23.4544H71.3841C70.8037 23.4544 70.555 23.2471 70.555 22.7082V21.0915H69.5186V22.7082C69.5186 22.874 69.5186 23.0191 69.5601 23.1435C69.3735 23.3508 69.0626 23.4544 68.648 23.4544H67.8811C67.3837 23.4544 67.1349 23.3715 67.0313 23.1849V17.091H65.9949V23.0813C65.9949 23.2679 65.9327 23.4544 65.5389 23.4544H64.8134C64.3989 23.4544 64.1502 23.3922 64.0051 23.2471C64.0051 23.0606 64.0051 22.8533 63.9429 22.6253L63.6734 21.4853C63.4454 20.4904 62.8236 19.9722 61.9116 19.9722H60.7716V21.1536H61.9116C62.3883 21.1536 62.5956 21.3195 62.6992 21.7547L62.9687 22.8948C63.0101 23.0813 63.0101 23.2057 62.9272 23.2886C62.8443 23.3922 62.6785 23.4337 62.3883 23.4337H60.2119V24.6152H62.3883C62.948 24.6152 63.4247 24.4079 63.6942 24.0348C63.9222 24.4079 64.2952 24.6152 64.7927 24.6152H65.5182C66.0364 24.6152 66.4924 24.3872 66.7411 23.9933C66.9691 24.4079 67.3629 24.6152 67.8604 24.6152H68.6273C69.2077 24.6152 69.643 24.4286 69.9746 24.0762C70.3062 24.4286 70.783 24.6152 71.3634 24.6152H72.5241C73.4154 24.6152 74.0165 23.9933 74.0165 23.0606V17.0703H72.9801V23.0606L73.0008 23.0813Z" fill="#026C68"/>
<path d="M76.5247 17.1328H75.4883V24.6362H76.5247V17.1328Z" fill="#026C68"/>
<path d="M83.2825 17.9619H82.2461V19.1434H83.2825V17.9619Z" fill="#026C68"/>
<path d="M81.935 17.9619H80.8779V19.1434H81.935V17.9619Z" fill="#026C68"/>
<path d="M84.2566 22.2941L84.1737 21.8381C83.9457 20.6981 83.3446 20.1592 82.2875 20.1592H80.6085L80.1525 22.5429C80.0281 23.1232 80.1525 23.6414 80.4427 24.0145C80.7536 24.3876 81.2511 24.5949 81.8522 24.5949H82.4533C83.0544 24.5949 83.5726 24.3669 83.9042 23.9731C84.2566 23.5378 84.3809 22.9367 84.2566 22.2734V22.2941ZM83.1166 23.3098C82.9715 23.4756 82.7642 23.5585 82.474 23.5585H81.8729C81.562 23.5585 81.3754 23.4963 81.2511 23.3512C81.1474 23.2269 81.1267 23.0196 81.1682 22.7501L81.4791 21.2163H82.3082C82.8678 21.2163 83.0544 21.4028 83.1787 22.0454L83.2616 22.4807C83.3238 22.833 83.2824 23.1232 83.1373 23.3098H83.1166Z" fill="#026C68"/>
<path d="M85.666 24.6567C85.666 25.092 85.5002 25.32 85.1064 25.4858L84.1943 25.8382L84.5882 26.8124L85.4794 26.46C86.2878 26.1491 86.7024 25.548 86.7024 24.6567V20.4697H85.666V24.6567Z" fill="#026C68"/>
<path d="M88.8782 17.1328H87.8418V24.6362H88.8782V17.1328Z" fill="#026C68"/>
<path d="M91.6142 18.1895H90.5156V19.3709H91.6142V18.1895Z" fill="#026C68"/>
<path d="M90.6406 24.6567C90.6406 25.092 90.4748 25.32 90.081 25.4858L89.1689 25.8382L89.5628 26.8124L90.4541 26.46C91.2624 26.1491 91.677 25.548 91.677 24.6567V20.4697H90.6406V24.6567Z" fill="#026C68"/>
<path d="M94.4749 20.2004H94.4127C93.2312 20.2004 92.4229 21.0295 92.4229 22.2732V22.5426C92.4229 23.7863 93.252 24.6361 94.4749 24.6361H95.4284V24.7398C95.4284 25.0921 95.3454 25.1958 94.7236 25.3201L92.6923 25.7761L92.9203 26.7918L94.9516 26.3358C95.5942 26.2114 96.444 25.9005 96.444 24.719V22.2524C96.444 21.0088 95.6356 20.1797 94.4542 20.1797L94.4749 20.2004ZM93.4592 22.2732C93.4592 21.6513 93.7909 21.299 94.4127 21.299H94.4749C95.0967 21.299 95.4284 21.6306 95.4284 22.2732V23.5168H94.4749C93.8323 23.5168 93.4592 23.1645 93.4592 22.5426V22.2732Z" fill="#026C68"/>
<path d="M129.5 41.4587C117.08 41.4587 107 31.3729 107 19.0389L107.186 15.9451H110.705V11.2425H111.098V10.5H112.775L113.272 11.3044H114.162V17.2858H114.866V18.1314H115.135V13.3257H117.95V14.5632H118.881V16.8733H120.475V14.6251H122.607L123.352 15.5945V18.152H127.699V18.7914H122.69V15.8007L122.276 15.2645H121.138V18.2758H120.247V17.5126H118.26V15.2026H117.329V13.9651H115.797V18.7914H114.245V17.9458H113.541V11.9644H112.961L112.465 11.16H111.782V11.9025H111.388V16.6258H107.849L107.724 19.1008C107.724 31.0842 117.536 40.84 129.583 40.84C141.63 40.84 151.4 31.1254 151.441 19.1833H149.164V15.3676H147.819V13.3876H146.287V12.5419H144.403V13.1194L144.01 13.5319V17.0589H142.085V14.4395L141.588 13.9032H140.574V13.0163H139.394V18.812H137.448V16.667H135.71V18.812H131.115V18.1727H135.047V16.0276H138.069V18.1727H138.711V12.3769H141.216V13.2638H141.919L142.747 14.1919V16.4401H143.327V13.2844L143.72 12.8719V11.9025H146.908V12.7482H148.44V14.7282H149.764V18.5439H152V19.1214C152.021 31.4554 141.919 41.5 129.521 41.5" fill="#88B925"/>
<path d="M121.079 32.892C120.896 32.892 120.712 32.9337 120.549 33.0171C120.101 33.351 119.938 33.9978 120.224 34.4985C120.346 34.7489 120.59 34.8949 120.916 34.9993C121.018 34.9993 121.099 35.0201 121.242 35.0201C122.586 35.0201 123.787 34.1647 124.785 33.351L124.969 33.2049L125.091 33.3927C125.539 34.1647 126.354 34.7489 127.189 34.9158H127.372C127.942 34.9158 128.634 34.6237 128.757 33.9769C128.838 33.5179 128.573 32.9963 128.125 32.7668C127.861 32.6624 127.514 32.6624 127.046 32.8711C126.944 32.9128 126.903 33.0589 126.863 33.2675C126.822 33.4553 126.74 33.81 126.415 33.81C126.089 33.81 125.804 33.6222 125.661 33.351C125.58 33.2049 125.58 33.038 125.661 32.9128C126.354 31.8487 127.27 31.0767 128.125 30.3882C128.533 30.0544 128.94 29.6997 129.327 29.345L129.469 29.2198L129.612 29.345C129.999 29.7206 130.406 30.0544 130.814 30.3674C131.73 31.1185 132.708 31.8905 133.278 33.0171C133.298 33.0589 133.359 33.1632 133.298 33.2884C133.217 33.4762 132.85 33.8309 132.565 33.8726C132.382 33.8934 132.28 33.8517 132.239 33.7891C132.137 33.6848 132.137 33.5179 132.137 33.4136C132.137 33.3092 132.137 33.2258 132.117 33.1632C131.995 32.8919 131.71 32.8294 131.425 32.7459C130.915 32.6207 130.325 33.038 130.203 33.6013C130.162 33.8726 130.203 34.123 130.325 34.3525C130.63 34.7489 131.017 34.9367 131.465 34.9367C132.382 34.9367 133.38 34.1647 133.848 33.3927L133.97 33.2049L134.154 33.351C135.07 34.1021 136.272 34.9575 137.473 34.9575C138.675 34.9575 138.104 34.9158 138.43 34.7697C138.614 34.6654 138.817 34.4568 138.878 34.1855C138.96 33.8934 138.899 33.6013 138.756 33.3718C138.573 33.0589 138.227 32.9128 137.88 32.9128C137.534 32.9128 137.168 33.1006 137.005 33.3718L136.903 33.5179L136.76 33.4762C136.149 33.2258 135.375 32.892 135.009 32.1826C134.866 31.9322 134.927 31.5984 135.05 31.3689C135.172 31.1185 135.314 31.0767 135.416 31.0767C135.518 31.0767 135.518 31.0768 135.538 31.0976C135.844 31.2854 136.149 31.3897 136.414 31.3897C136.923 31.3897 137.331 31.0767 137.453 30.5551C137.493 30.2839 137.453 30.0335 137.31 29.7832C137.168 29.5328 136.903 29.3659 136.618 29.2824H136.434C135.946 29.2824 135.477 29.5328 135.172 29.9083C134.989 30.1587 134.887 30.4508 134.785 30.7638C134.703 31.0559 134.602 31.3063 134.459 31.5775L134.337 31.7653L130.508 28.1349L130.651 27.9888C134.785 23.9203 140.345 22.4806 144.886 22.0425C144.316 22.0007 143.705 21.959 143.135 21.959C138.104 21.959 133.38 23.7325 129.795 26.9456L129.673 27.0499L129.551 26.9456C127.698 25.5268 125.152 23.7742 122.26 22.9188C119.551 22.1051 116.843 21.7921 114.256 22.0216C118.798 22.4389 124.358 23.8785 128.512 27.968L128.655 28.114L124.826 31.7444L124.704 31.5566C124.521 31.2854 124.439 31.0142 124.378 30.7429C124.276 30.43 124.195 30.1587 123.991 29.8875C123.706 29.5954 123.421 29.4493 123.034 29.3033C122.423 29.1781 121.853 29.5537 121.731 30.1587C121.649 30.6177 121.914 31.1393 122.362 31.3689C122.403 31.3897 122.504 31.3897 122.627 31.3897C122.912 31.3897 123.197 31.2645 123.462 31.1394L123.584 31.0976C123.625 31.0768 123.665 31.0767 123.706 31.0767C123.889 31.0767 124.032 31.2019 124.134 31.3897C124.256 31.6401 124.317 31.9322 124.154 32.1617C123.767 32.8502 123.014 33.1841 122.403 33.4553L122.26 33.497L122.158 33.3718C121.873 33.038 121.527 32.8294 121.16 32.8294M121.242 35.4791C121.12 35.4791 120.977 35.4791 120.834 35.4583C120.325 35.3331 120.02 35.0827 119.837 34.7489C119.45 34.0604 119.653 33.1841 120.325 32.6833C120.997 32.2869 121.771 32.4955 122.28 33.0171C122.79 32.8294 123.401 32.4955 123.686 31.9739C123.706 31.9531 123.706 31.8487 123.686 31.7236C123.665 31.6192 123.604 31.5358 123.584 31.5358L123.482 31.5775C123.177 31.7027 122.851 31.8487 122.464 31.8487C122.077 31.8487 122.179 31.8279 122.056 31.7653C121.445 31.4523 121.099 30.7429 121.181 30.0961C121.323 29.345 121.914 28.8443 122.627 28.8443C123.339 28.8443 122.891 28.8651 122.993 28.886H123.014C123.462 29.0738 123.808 29.2615 124.154 29.6162C124.419 29.9292 124.541 30.3048 124.643 30.6386C124.684 30.7847 124.745 30.9724 124.826 31.0976L127.942 28.1349C123.197 23.5864 116.66 22.4598 111.955 22.3346L110 22.2928L111.874 21.9173C115.193 21.2705 118.696 21.4583 122.24 22.5015C125.132 23.3569 127.657 25.0887 129.531 26.4866C133.196 23.2735 137.942 21.5 143.033 21.5C148.124 21.5 145.742 21.6252 147.045 21.8964L149 22.272L147.004 22.3137C142.32 22.4389 135.762 23.5656 131.017 28.114L134.133 31.0767C134.215 30.9307 134.235 30.7638 134.316 30.6177C134.418 30.2839 134.5 29.9083 134.764 29.5954C135.192 29.0529 135.946 28.7399 136.618 28.8443C137.005 28.9486 137.351 29.1781 137.575 29.4911C137.819 29.8249 137.88 30.2422 137.819 30.6177C137.636 31.3271 137.086 31.7653 136.373 31.7653C135.661 31.7653 135.681 31.661 135.375 31.4732C135.335 31.5775 135.274 31.7861 135.335 31.8696C135.62 32.3912 136.21 32.7042 136.74 32.9128C137.025 32.579 137.432 32.3912 137.88 32.3912C138.328 32.3912 138.838 32.6624 139.143 33.0797C139.387 33.4136 139.449 33.8308 139.326 34.2481C139.225 34.6446 138.96 34.9575 138.634 35.0827C138.267 35.2288 137.921 35.3331 137.534 35.3331C136.272 35.3331 135.07 34.5194 134.133 33.7891C133.563 34.5611 132.524 35.3331 131.547 35.3331C130.569 35.3331 130.427 35.0618 130.04 34.5611C129.795 34.2273 129.734 33.81 129.856 33.4344C130.04 32.725 130.651 32.2034 131.282 32.2034C131.913 32.2034 131.465 32.2243 131.587 32.2452C131.954 32.3286 132.341 32.4329 132.545 32.8711C132.646 32.9963 132.626 33.2049 132.626 33.3301C132.728 33.3092 132.891 33.1841 132.952 33.0589C132.382 32.0156 131.526 31.3271 130.61 30.576C130.243 30.2839 129.877 29.9918 129.531 29.6788C129.164 30.0127 128.818 30.3048 128.451 30.6177C127.575 31.348 126.72 32.0574 126.068 33.0797C126.089 33.1632 126.333 33.3301 126.455 33.351C126.476 33.3092 126.496 33.2049 126.537 33.1632C126.578 32.9128 126.659 32.579 126.985 32.4538C127.555 32.2034 127.983 32.1826 128.39 32.3703C129.001 32.6833 129.347 33.3927 129.266 34.0395C129.083 35.0201 128.044 35.4165 127.209 35.3331C126.333 35.187 125.478 34.6028 124.928 33.81C123.91 34.7072 122.708 35.5 121.303 35.5" fill="#88B925"/>
<path d="M137.477 6.43586L138 6.85474L137.618 6.31019C135.183 2.66592 132.427 2.54026 131.542 2.62403C131.723 2.43554 132.025 2.12137 132.447 1.97476L132.749 1.8491L132.447 1.76532C131.783 1.57683 130.858 1.43022 130.073 2.10043C129.953 1.40927 129.651 0.655285 129.47 0.52962C129.43 0.508676 129.369 0.487731 129.349 0.508675C129.168 0.550563 128.786 1.13699 128.605 2.12137C128.041 1.6606 127.096 1.43022 126.311 1.8491L126.07 1.97476L126.331 2.05854C126.331 2.05854 126.854 2.24704 127.156 2.70781C123.575 2.79158 122.288 4.61372 121.241 6.07981C121.161 6.18453 121.101 6.26831 121 6.39397L121.141 6.54058C122.609 5.11638 124.863 4.65561 125.949 4.92789C124.641 5.47243 122.147 7.04324 121.282 11.5462L121.181 12.1327L121.483 11.63C122.911 9.28426 124.299 7.86006 125.969 7.06418C124.883 8.76066 123.414 11.6719 123.998 14.3108L124.078 14.7716L124.179 14.269C124.742 11.6719 126.191 9.53559 127.156 8.55122C126.372 11.4415 126.673 14.2061 127.076 15.3162L127.257 15.8188V15.2952C127.438 12.9076 128.082 10.3524 128.544 9.13765L128.866 11.4834L128.685 11.5253L128.826 14.7716H128.585L128.846 18.1017L128.565 18.1855V18.2902C128.565 18.3112 128.746 20.3846 128.846 21.5785C128.464 21.767 128.102 22.1649 127.981 22.3115V22.5H130.778V22.3115C130.496 21.9136 130.073 21.6832 129.912 21.5785L130.214 18.0808H129.912C129.912 18.1017 130.093 14.6669 130.093 14.6669H129.852C129.852 14.6878 129.993 11.4415 129.993 11.4415H129.731C129.772 11.1483 129.872 10.3734 130.013 9.05387C130.617 10.122 131.14 12.363 131.421 15.1277L131.502 15.9654L131.622 15.1486C132.146 11.7766 131.643 9.17954 131.441 8.27894C132.266 9.11671 133.936 12.0908 134.499 14.2061L134.64 14.8345L134.68 14.1852C134.862 11.3577 134.258 9.20048 132.548 6.85474C133.252 7.04324 134.097 7.67156 135.022 8.61405C135.888 9.47275 136.692 10.6247 137.135 11.4624L137.396 11.9651L137.356 11.3787C137.034 7.92289 134.54 5.47243 132.749 4.76033C134.359 4.52994 136.712 5.82848 137.437 6.39397" fill="#88B925"/>
<path d="M1.36621 31.6829H1.4284L1.26257 34.792H0.537109C0.537109 34.7713 0.723656 31.1025 0.723656 31.1025H1.36621V31.6829ZM3.99861 31.6829H3.9157L2.98296 34.7713H2.2575L1.32476 31.6829H1.26257V31.1025H1.78076L2.7135 34.1909H2.54768L3.48042 31.1025H3.99861V31.6829ZM4.01934 34.792L3.85352 31.6829H3.93643V31.1025H4.57899L4.76553 34.7713H4.04007L4.01934 34.792Z" fill="#7EBC00"/>
<path d="M5.51206 31.4756C5.42915 31.4134 5.3877 31.3097 5.3877 31.2061C5.3877 31.0817 5.42915 30.9988 5.51206 30.9366C5.59497 30.8745 5.69861 30.833 5.80225 30.833C5.90588 30.833 6.00952 30.8745 6.09243 30.9366C6.17535 30.9988 6.2168 31.1025 6.2168 31.2061C6.2168 31.3305 6.17535 31.4134 6.09243 31.4756C6.00952 31.5377 5.90588 31.5792 5.80225 31.5792C5.69861 31.5792 5.59497 31.5377 5.51206 31.4756ZM5.42915 34.7712V32.0352H6.15462V34.7712H5.42915Z" fill="#7EBC00"/>
<path d="M6.83789 34.7716V32.0356H7.56336V34.7716H6.83789ZM7.45972 32.8232C7.5219 32.5952 7.62554 32.4087 7.79136 32.2429C7.95718 32.0771 8.16446 31.9941 8.43392 31.9941L8.24737 32.6367C8.06082 32.6367 7.93645 32.6782 7.83281 32.7611C7.72918 32.844 7.66699 32.9476 7.62554 33.072C7.58408 33.1963 7.56336 33.3207 7.56336 33.4451H7.37681C7.37681 33.2585 7.41826 33.0512 7.48045 32.8232H7.45972ZM8.45464 31.9941C8.64119 31.9941 8.78628 32.0356 8.93138 32.1392C9.07647 32.2429 9.18011 32.388 9.26302 32.5745C9.34593 32.7611 9.38738 32.9891 9.38738 33.2585V34.7716H8.66192V33.2585C8.66192 33.0512 8.62046 32.9062 8.55828 32.8025C8.4961 32.6989 8.39246 32.6367 8.24737 32.6367L8.43392 31.9941H8.45464Z" fill="#7EBC00"/>
<path d="M10.1136 31.4756C10.0307 31.4134 9.98926 31.3097 9.98926 31.2061C9.98926 31.0817 10.0307 30.9988 10.1136 30.9366C10.1965 30.8745 10.3002 30.833 10.4038 30.833C10.5074 30.833 10.6111 30.8745 10.694 30.9366C10.7769 30.9988 10.8184 31.1025 10.8184 31.2061C10.8184 31.3305 10.7769 31.4134 10.694 31.4756C10.6111 31.5377 10.5074 31.5792 10.4038 31.5792C10.3002 31.5792 10.1965 31.5377 10.1136 31.4756ZM10.0514 34.7712V32.0352H10.7769V34.7712H10.0514Z" fill="#7EBC00"/>
<path d="M12.4969 34.7916H12.4554C12.1445 34.7916 11.8958 34.7087 11.6885 34.5636C11.4813 34.4185 11.3569 34.1698 11.3154 33.8796H11.9165C11.9373 34.0247 11.9994 34.1076 12.0823 34.1698C12.1653 34.232 12.2896 34.2527 12.4554 34.2527H12.4969V34.7916ZM12.4347 32.5323C12.3104 32.5323 12.2274 32.553 12.1445 32.5945C12.0616 32.6359 12.0202 32.6774 11.9994 32.7396C11.9787 32.8017 11.958 32.8432 11.9994 32.9054C12.0202 32.9676 12.0824 33.009 12.1653 33.0298C12.2482 33.0505 12.3725 33.0712 12.5384 33.0919C12.7249 33.1127 12.8493 33.1541 12.9736 33.1749C13.098 33.1956 13.2016 33.2578 13.3053 33.3199C13.4089 33.3821 13.4918 33.4858 13.5333 33.6101C13.6162 33.7967 13.6369 33.9832 13.5747 34.1491C13.5126 34.3356 13.3882 34.4807 13.2016 34.605C13.0151 34.7294 12.7871 34.7916 12.5384 34.7916V34.2527C12.642 34.2527 12.7456 34.232 12.8078 34.1905C12.8907 34.149 12.9322 34.0869 12.9529 34.0247C12.9736 33.9625 12.9736 33.9003 12.9529 33.8381C12.9115 33.776 12.8493 33.7138 12.7664 33.693C12.6834 33.6723 12.5384 33.6309 12.3518 33.6101C12.186 33.5894 12.0409 33.5687 11.9373 33.5272C11.8336 33.5065 11.73 33.4443 11.6263 33.3821C11.5227 33.3199 11.4605 33.2163 11.3983 33.1127C11.3362 32.9261 11.3154 32.7603 11.3983 32.5737C11.4605 32.4079 11.5849 32.2628 11.7714 32.1385C11.958 32.0348 12.186 31.9727 12.4347 31.9727V32.5116V32.5323ZM12.7664 32.6152C12.6834 32.553 12.5798 32.5323 12.4347 32.5323V31.9934C12.6213 31.9934 12.7871 32.0348 12.9322 32.097C13.098 32.1592 13.2224 32.2628 13.326 32.3872C13.4296 32.5116 13.4918 32.6774 13.5126 32.8432H12.9115C12.8907 32.7396 12.8285 32.6567 12.7456 32.6152H12.7664Z" fill="#7EBC00"/>
<path d="M15.7095 32.6156H13.9062V32.0767H15.7095V32.6156ZM15.7095 34.7713H15.295C15.0048 34.7713 14.7768 34.7091 14.611 34.564C14.4452 34.419 14.3623 34.2117 14.3623 33.9215V31.1025H15.0877V33.9215C15.0877 33.9837 15.0877 34.0459 15.0877 34.0666C15.0877 34.0873 15.1084 34.108 15.1292 34.1288C15.1499 34.1288 15.1914 34.1288 15.2743 34.1288H15.6888V34.7713H15.7095Z" fill="#7EBC00"/>
<path d="M16.2275 34.7716V32.0356H16.953V34.7716H16.2275ZM17.1603 32.3258C17.3676 32.0978 17.6577 31.9941 17.9894 31.9941V32.6781C17.637 32.6781 17.3883 32.7403 17.2225 32.8647C17.0566 32.9891 16.9737 33.1756 16.953 33.4036H16.8079C16.8286 32.9062 16.953 32.5538 17.1603 32.3258Z" fill="#7EBC00"/>
<path d="M18.1973 32.0352H18.9849L20.1249 34.6676L19.586 35.0821L18.1973 32.0559V32.0352ZM21.3686 32.0352L19.7933 35.9319H19.0264L20.6017 32.0352H21.3686Z" fill="#7EBC00"/>
<path d="M25.3484 34.1081C25.2241 34.3154 25.0583 34.4812 24.8303 34.6056C24.623 34.73 24.3742 34.7921 24.1255 34.7921C23.8768 34.7921 23.6281 34.73 23.4001 34.6056C23.172 34.4812 23.0062 34.3154 22.8819 34.1081C22.7575 33.9009 22.6953 33.6521 22.6953 33.4034C22.6953 33.1547 22.7575 32.9059 22.8819 32.6987C23.0062 32.4914 23.172 32.3256 23.4001 32.2012C23.6281 32.0768 23.8561 32.0146 24.1255 32.0146C24.395 32.0146 24.623 32.0768 24.8303 32.2012C25.0375 32.3256 25.2241 32.4914 25.3484 32.6987C25.4728 32.9059 25.535 33.1547 25.535 33.4034C25.535 33.6521 25.4728 33.9009 25.3484 34.1081ZM24.7059 33.0096C24.6437 32.8852 24.5608 32.8023 24.4572 32.7401C24.3535 32.6779 24.2499 32.6365 24.1255 32.6365C24.0012 32.6365 23.8975 32.6779 23.7939 32.7401C23.6902 32.8023 23.6073 32.8852 23.5451 33.0096C23.483 33.1339 23.4622 33.2583 23.4622 33.4034C23.4622 33.5485 23.483 33.6729 23.5451 33.7972C23.6073 33.9216 23.6902 34.0045 23.7939 34.0667C23.8975 34.1289 24.0219 34.1703 24.1255 34.1703C24.2292 34.1703 24.3535 34.1289 24.4572 34.0667C24.5608 34.0045 24.6437 33.9216 24.7059 33.7972C24.7681 33.6729 24.8095 33.5485 24.8095 33.4034C24.8095 33.2583 24.7681 33.1339 24.7059 33.0096Z" fill="#7EBC00"/>
<path d="M27.5248 32.616H25.7422V32.0771H27.5248V32.616ZM26.1567 34.7717V31.9527C26.1567 31.6625 26.2604 31.4345 26.4469 31.248C26.6335 31.0822 26.8822 30.9785 27.2138 30.9785V31.5589C27.1102 31.5589 27.0273 31.5796 26.9858 31.6418C26.9444 31.704 26.9029 31.7869 26.9029 31.932V34.7509H26.1775L26.1567 34.7717ZM27.2138 30.9993C27.3382 30.9993 27.4418 30.9993 27.5248 31.0407V31.6211H27.4833C27.4004 31.6211 27.2968 31.6003 27.2138 31.6003V31.02V30.9993Z" fill="#7EBC00"/>
<path d="M29.8877 31.6829H29.9499L29.7841 34.792H29.0586C29.0586 34.7713 29.2451 31.1025 29.2451 31.1025H29.8877V31.6829ZM32.5201 31.6829H32.4372L31.5044 34.7713H30.779L29.8462 31.6829H29.7841V31.1025H30.3022L31.235 34.1909H31.0692L32.0019 31.1025H32.5201V31.6829ZM32.5408 34.792L32.375 31.6829H32.4579V31.1025H33.1005L33.287 34.7713H32.5616L32.5408 34.792Z" fill="#7EBC00"/>
<path d="M34.8624 34.7921C34.6759 34.7921 34.5308 34.7507 34.3857 34.6471C34.2406 34.5434 34.137 34.3983 34.0541 34.2118C33.9711 34.0252 33.9297 33.7972 33.9297 33.5278V32.0146H34.6552V33.5278C34.6552 33.735 34.6966 33.8801 34.7588 33.9838C34.821 34.0874 34.9246 34.1496 35.0697 34.1496L34.8832 34.7921H34.8624ZM35.8573 33.963C35.7952 34.191 35.6915 34.3776 35.5257 34.5434C35.3599 34.7092 35.1526 34.7921 34.8832 34.7921L35.0697 34.1496C35.2563 34.1496 35.3806 34.1081 35.4843 34.0252C35.5879 33.9423 35.6501 33.8387 35.6915 33.7143C35.733 33.5899 35.7537 33.4656 35.7537 33.3412H35.9403C35.9403 33.5278 35.8988 33.735 35.8366 33.963H35.8573ZM36.4792 32.0354V34.7714H35.7537V32.0354H36.4792Z" fill="#7EBC00"/>
<path d="M37.1211 34.7716V32.0356H37.8466V34.7716H37.1211ZM37.7429 32.8232C37.8051 32.5952 37.9087 32.4087 38.0746 32.2429C38.2404 32.0771 38.4477 31.9941 38.7171 31.9941L38.5306 32.6367C38.344 32.6367 38.2197 32.6782 38.116 32.7611C38.0124 32.844 37.9502 32.9476 37.9087 33.072C37.8673 33.1963 37.8466 33.3207 37.8466 33.4451H37.66C37.66 33.2585 37.7015 33.0512 37.7636 32.8232H37.7429ZM38.7171 31.9941C38.9037 31.9941 39.0488 32.0356 39.1939 32.1392C39.3389 32.2429 39.4426 32.388 39.5255 32.5745C39.6084 32.7611 39.6499 32.9891 39.6499 33.2585V34.7716H38.9244V33.2585C38.9244 33.0512 38.8829 32.9062 38.8208 32.8025C38.7586 32.6989 38.6549 32.6367 38.5098 32.6367L38.6964 31.9941H38.7171Z" fill="#7EBC00"/>
<path d="M40.3958 31.4756C40.3129 31.4134 40.2715 31.3097 40.2715 31.2061C40.2715 31.0817 40.3129 30.9988 40.3958 30.9366C40.4788 30.8745 40.5824 30.833 40.686 30.833C40.7897 30.833 40.8933 30.8745 40.9762 30.9366C41.0591 30.9988 41.1006 31.1025 41.1006 31.2061C41.1006 31.3305 41.0591 31.4134 40.9762 31.4756C40.8933 31.5377 40.7897 31.5792 40.686 31.5792C40.5824 31.5792 40.4788 31.5377 40.3958 31.4756ZM40.3337 34.7712V32.0352H41.0591V34.7712H40.3337Z" fill="#7EBC00"/>
<path d="M43.9403 34.3149C43.8159 34.4807 43.6709 34.6051 43.4843 34.6672C43.2978 34.7502 43.1319 34.7916 42.9454 34.7916H42.8832C42.6345 34.7916 42.4065 34.7294 42.2199 34.6258C42.0334 34.5221 41.8883 34.3771 41.7846 34.2112C41.6603 33.9832 41.5774 33.7345 41.5566 33.465C41.5566 33.1956 41.5774 32.9468 41.681 32.7188C41.7639 32.5116 41.909 32.325 42.1163 32.1799C42.3236 32.0348 42.5723 31.9727 42.8832 31.9727H42.9454C43.1319 31.9727 43.2978 32.0141 43.4843 32.097C43.6709 32.1799 43.8159 32.3043 43.9403 32.4494C44.0647 32.6152 44.1476 32.8018 44.1683 33.0298H43.4221C43.4014 32.8847 43.3392 32.781 43.2356 32.6981C43.1319 32.6359 43.049 32.5945 42.9454 32.5945H42.8832C42.7381 32.5945 42.6345 32.6152 42.5516 32.6774C42.4687 32.7396 42.4065 32.8225 42.365 32.9468C42.3236 33.0712 42.3028 33.237 42.3028 33.4236C42.3028 33.6101 42.3443 33.7552 42.4065 33.8589C42.4687 33.9625 42.5308 34.0247 42.593 34.0661C42.6552 34.1076 42.7588 34.1283 42.8625 34.1283H42.9247C43.0283 34.1283 43.1319 34.0869 43.2148 34.0247C43.3185 33.9625 43.3807 33.8381 43.4014 33.693H44.1476C44.1269 33.921 44.0439 34.1076 43.9196 34.2734L43.9403 34.3149Z" fill="#7EBC00"/>
<path d="M44.7279 31.4756C44.645 31.4134 44.6035 31.3097 44.6035 31.2061C44.6035 31.0817 44.645 30.9988 44.7279 30.9366C44.8108 30.8745 44.9144 30.833 45.0181 30.833C45.1217 30.833 45.2253 30.8745 45.3083 30.9366C45.3912 30.9988 45.4326 31.1025 45.4326 31.2061C45.4326 31.3305 45.3912 31.4134 45.3083 31.4756C45.2253 31.5377 45.1217 31.5792 45.0181 31.5792C44.9144 31.5792 44.8108 31.5377 44.7279 31.4756ZM44.6657 34.7712V32.0352H45.3912V34.7712H44.6657Z" fill="#7EBC00"/>
<path d="M46.0752 32.0348H46.8007V35.9109H46.0752V32.0348ZM47.4018 34.2112L47.5468 34.7916C47.2359 34.7916 47.0079 34.688 46.8421 34.46C46.697 34.232 46.5934 33.921 46.5727 33.5065L46.8007 33.465C46.8007 33.693 46.8628 33.8796 46.9665 34.004C47.0701 34.1283 47.2152 34.2112 47.4225 34.2112H47.4018ZM47.5676 31.9934L47.4225 32.5737C47.2152 32.5737 47.0701 32.6359 46.9665 32.7396C46.8628 32.8432 46.8007 33.009 46.8007 33.1956L46.5934 33.1541C46.6141 32.781 46.7177 32.4908 46.8836 32.2836C47.0494 32.0763 47.2774 31.9727 47.5883 31.9727L47.5676 31.9934ZM47.5883 31.9934C47.7956 31.9934 47.9821 32.0556 48.148 32.1592C48.3138 32.2628 48.4589 32.4287 48.5625 32.6359C48.6661 32.8432 48.7283 33.0919 48.7283 33.3614C48.7283 33.6309 48.6869 33.9003 48.5832 34.1076C48.4796 34.3149 48.3552 34.5014 48.1687 34.605C47.9821 34.7294 47.7956 34.7916 47.5676 34.7916L47.4225 34.2112C47.609 34.2112 47.7541 34.1283 47.8578 33.9832C47.9614 33.8381 48.0029 33.6309 48.0029 33.3821C48.0029 33.1334 47.9614 32.9469 47.8578 32.8018C47.7541 32.6567 47.6298 32.5945 47.4432 32.5945L47.5883 32.0141V31.9934Z" fill="#7EBC00"/>
<path d="M49.7239 34.6265C49.5581 34.5229 49.413 34.3571 49.3094 34.1498C49.2057 33.9425 49.1436 33.6938 49.1436 33.4243C49.1436 33.1549 49.185 32.8854 49.2887 32.6781C49.3923 32.4709 49.5167 32.2843 49.7032 32.1807C49.8897 32.0563 50.0763 31.9941 50.3043 31.9941L50.4494 32.5745C50.2628 32.5745 50.1178 32.6574 50.0141 32.8025C49.9105 32.9476 49.869 33.1549 49.869 33.4036C49.869 33.6523 49.9105 33.8389 50.0141 33.984C50.1178 34.1291 50.2421 34.1913 50.4287 34.1913L50.2836 34.7716C50.0763 34.7716 49.8897 34.7094 49.7239 34.6058V34.6265ZM50.4494 34.212C50.6567 34.212 50.8018 34.1498 50.9054 34.0462C51.009 33.9425 51.0712 33.7767 51.0712 33.5902L51.2785 33.6316C51.2578 34.0047 51.1541 34.2949 50.9883 34.5022C50.8225 34.7094 50.5945 34.8131 50.2836 34.8131L50.4287 34.2327L50.4494 34.212ZM50.325 31.9941C50.6359 31.9941 50.8639 32.0978 51.0298 32.3258C51.1749 32.5538 51.2785 32.8647 51.2992 33.2793L51.0712 33.3207C51.0712 33.0927 51.009 32.9062 50.9054 32.7818C50.8018 32.6574 50.6567 32.5745 50.4494 32.5745L50.3043 31.9941H50.325ZM51.0712 34.7716V32.0356H51.7967V34.7716H51.0712Z" fill="#7EBC00"/>
<path d="M52.646 34.5433C52.5009 34.3775 52.418 34.1702 52.418 33.8801V30.916H53.1434V33.8801C53.1434 33.9837 53.1434 34.0459 53.1434 34.0666C53.1434 34.1081 53.1642 34.1288 53.2056 34.1288C53.2471 34.1288 53.3093 34.1288 53.4129 34.1288V34.7714C53.0398 34.7714 52.7703 34.6884 52.6252 34.5433H52.646Z" fill="#7EBC00"/>
<path d="M53.9935 31.4756C53.9106 31.4134 53.8691 31.3097 53.8691 31.2061C53.8691 31.0817 53.9106 30.9988 53.9935 30.9366C54.0764 30.8745 54.1801 30.833 54.2837 30.833C54.3873 30.833 54.491 30.8745 54.5739 30.9366C54.6568 30.9988 54.6982 31.1025 54.6982 31.2061C54.6982 31.3305 54.6568 31.4134 54.5739 31.4756C54.491 31.5377 54.3873 31.5792 54.2837 31.5792C54.1801 31.5792 54.0764 31.5377 53.9935 31.4756ZM53.9106 34.7712V32.0352H54.6361V34.7712H53.9106Z" fill="#7EBC00"/>
<path d="M56.8951 32.6156H55.0918V32.0767H56.8951V32.6156ZM56.8951 34.7713H56.4805C56.1904 34.7713 55.9624 34.7091 55.7965 34.564C55.6307 34.419 55.5478 34.2117 55.5478 33.9215V31.1025H56.2733V33.9215C56.2733 33.9837 56.2733 34.0459 56.2733 34.0666C56.2733 34.0873 56.294 34.108 56.3147 34.1288C56.3355 34.1288 56.3769 34.1288 56.4598 34.1288H56.8744V34.7713H56.8951Z" fill="#7EBC00"/>
<path d="M57.4964 31.4756C57.4135 31.4134 57.3721 31.3097 57.3721 31.2061C57.3721 31.0817 57.4135 30.9988 57.4964 30.9366C57.5793 30.8745 57.683 30.833 57.7866 30.833C57.8903 30.833 57.9939 30.8745 58.0768 30.9366C58.1597 30.9988 58.2012 31.1025 58.2012 31.2061C58.2012 31.3305 58.1597 31.4134 58.0768 31.4756C57.9939 31.5377 57.8903 31.5792 57.7866 31.5792C57.683 31.5792 57.5793 31.5377 57.4964 31.4756ZM57.4343 34.7712V32.0352H58.1597V34.7712H57.4343Z" fill="#7EBC00"/>
<path d="M60.067 34.7916C59.7976 34.7916 59.5696 34.7294 59.3623 34.6258C59.155 34.5221 58.9892 34.3563 58.8855 34.1491C58.7612 33.9418 58.7197 33.693 58.7197 33.4236C58.7197 33.1541 58.7612 32.9468 58.8648 32.7188C58.9685 32.4908 59.1135 32.325 59.3208 32.1799C59.5281 32.0348 59.7768 31.9727 60.0877 31.9727C60.3987 31.9727 60.6474 32.0348 60.8547 32.1799C61.0619 32.325 61.1863 32.4908 61.2692 32.6981C61.3521 32.9054 61.3936 33.1334 61.3936 33.3821V33.5687H60.7096V33.3821C60.7096 33.1127 60.6681 32.8847 60.5645 32.7396C60.4608 32.5945 60.3157 32.5116 60.1085 32.5116C59.9012 32.5116 59.839 32.553 59.7354 32.6359C59.6317 32.7188 59.5488 32.8225 59.5074 32.9468C59.4659 33.0919 59.4245 33.237 59.4245 33.4029C59.4245 33.5687 59.4452 33.7345 59.5074 33.8589C59.5696 33.9832 59.6317 34.0661 59.7354 34.1283C59.839 34.1905 59.9634 34.2112 60.1085 34.2112V34.7501L60.067 34.7916ZM60.8754 33.6101H59.0514V33.2163H60.8754V33.6101ZM60.6888 34.6672C60.5023 34.7502 60.295 34.8123 60.1085 34.8123H60.0463V34.2734H60.1085C60.2328 34.2734 60.3365 34.2527 60.4608 34.1905C60.5852 34.1283 60.6681 34.0661 60.7303 34.004L61.1448 34.3563C61.0412 34.4807 60.8754 34.6051 60.6888 34.688V34.6672Z" fill="#7EBC00"/>
<path d="M62.8446 34.7916H62.8031C62.4922 34.7916 62.2435 34.7087 62.0362 34.5636C61.8289 34.4185 61.7045 34.1698 61.6631 33.8796H62.2642C62.2849 34.0247 62.3471 34.1076 62.43 34.1698C62.5129 34.232 62.6373 34.2527 62.8031 34.2527H62.8446V34.7916ZM62.8031 32.5323C62.6787 32.5323 62.5958 32.553 62.5129 32.5945C62.43 32.6359 62.3885 32.6774 62.3678 32.7396C62.3471 32.8017 62.3264 32.8432 62.3678 32.9054C62.3885 32.9676 62.4507 33.009 62.5336 33.0298C62.6166 33.0505 62.7409 33.0712 62.9067 33.0919C63.0933 33.1127 63.2177 33.1541 63.342 33.1749C63.4664 33.1956 63.57 33.2578 63.6737 33.3199C63.7773 33.3821 63.8602 33.4858 63.9017 33.6101C63.9846 33.7967 64.0053 33.9832 63.9431 34.1491C63.8809 34.3356 63.7566 34.4807 63.57 34.605C63.3835 34.7294 63.1555 34.7916 62.9067 34.7916V34.2527C63.0104 34.2527 63.114 34.232 63.1762 34.1905C63.2591 34.149 63.3006 34.0869 63.3213 34.0247C63.342 33.9625 63.342 33.9003 63.3213 33.8381C63.2798 33.776 63.2177 33.7138 63.1347 33.693C63.0518 33.6723 62.9067 33.6309 62.7202 33.6101C62.5544 33.5894 62.4093 33.5687 62.3056 33.5272C62.202 33.5065 62.0984 33.4443 61.9947 33.3821C61.8911 33.3199 61.8289 33.2163 61.7667 33.1127C61.7045 32.9261 61.6838 32.7603 61.7667 32.5737C61.8289 32.4079 61.9533 32.2628 62.1398 32.1385C62.3264 32.0348 62.5544 31.9727 62.8031 31.9727V32.5116V32.5323ZM63.1347 32.6152C63.0518 32.553 62.9482 32.5323 62.8031 32.5323V31.9934C62.9897 31.9934 63.1555 32.0348 63.3006 32.097C63.4664 32.1592 63.5908 32.2628 63.6944 32.3872C63.798 32.5116 63.8602 32.6774 63.8809 32.8432H63.2798C63.2591 32.7396 63.1969 32.6567 63.114 32.6152H63.1347Z" fill="#7EBC00"/>
<path d="M76.3789 34.7713V31.1025H77.1044V34.7713H76.3789ZM79.0942 33.1546H76.752V32.512H79.0942V33.1546ZM78.7211 34.7713V31.1025H79.4466V34.7713H78.7211Z" fill="#7EBC00"/>
<path d="M82.618 34.1081C82.4936 34.3154 82.3278 34.4812 82.0998 34.6056C81.8925 34.73 81.6438 34.7921 81.395 34.7921C81.1463 34.7921 80.8976 34.73 80.6696 34.6056C80.4623 34.4812 80.2757 34.3154 80.1514 34.1081C80.027 33.9009 79.9648 33.6521 79.9648 33.4034C79.9648 33.1547 80.027 32.9059 80.1514 32.6987C80.2757 32.4914 80.4416 32.3256 80.6696 32.2012C80.8768 32.0768 81.1256 32.0146 81.395 32.0146C81.6645 32.0146 81.8925 32.0768 82.0998 32.2012C82.3071 32.3256 82.4936 32.4914 82.618 32.6987C82.7423 32.9059 82.8045 33.1547 82.8045 33.4034C82.8045 33.6521 82.7423 33.9009 82.618 34.1081ZM81.9754 33.0096C81.9132 32.8852 81.8303 32.8023 81.7267 32.7401C81.623 32.6779 81.5194 32.6365 81.395 32.6365C81.2707 32.6365 81.167 32.6779 81.0634 32.7401C80.9598 32.8023 80.8769 32.8852 80.8147 33.0096C80.7525 33.1339 80.711 33.2583 80.711 33.4034C80.711 33.5485 80.7525 33.6729 80.8147 33.7972C80.8769 33.9216 80.9598 34.0045 81.0634 34.0667C81.167 34.1289 81.2914 34.1703 81.395 34.1703C81.4987 34.1703 81.623 34.1289 81.7267 34.0667C81.8303 34.0045 81.9132 33.9216 81.9754 33.7972C82.0376 33.6729 82.0791 33.5485 82.0791 33.4034C82.0791 33.2583 82.0376 33.1339 81.9754 33.0096Z" fill="#7EBC00"/>
<path d="M84.256 34.7921C84.0694 34.7921 83.9243 34.7507 83.7792 34.6471C83.6341 34.5434 83.5305 34.3983 83.4476 34.2118C83.3647 34.0252 83.3232 33.7972 83.3232 33.5278V32.0146H84.0487V33.5278C84.0487 33.735 84.0902 33.8801 84.1523 33.9838C84.2145 34.0874 84.3182 34.1496 84.4633 34.1496L84.2767 34.7921H84.256ZM85.2509 33.963C85.1887 34.191 85.0851 34.3776 84.9193 34.5434C84.7534 34.7092 84.5462 34.7921 84.2767 34.7921L84.4633 34.1496C84.6498 34.1496 84.7742 34.1081 84.8778 34.0252C84.9814 33.9423 85.0436 33.8387 85.0851 33.7143C85.1265 33.5899 85.1473 33.4656 85.1473 33.3412H85.3338C85.3338 33.5278 85.2924 33.735 85.2302 33.963H85.2509ZM85.8727 32.0354V34.7714H85.1473V32.0354H85.8727Z" fill="#7EBC00"/>
<path d="M87.5721 34.7916H87.5306C87.2197 34.7916 86.971 34.7087 86.7637 34.5636C86.5564 34.4185 86.4321 34.1698 86.3906 33.8796H86.9917C87.0124 34.0247 87.0746 34.1076 87.1575 34.1698C87.2405 34.232 87.3648 34.2527 87.5306 34.2527H87.5721V34.7916ZM87.5099 32.5323C87.3855 32.5323 87.3026 32.553 87.2197 32.5945C87.1368 32.6359 87.0954 32.6774 87.0746 32.7396C87.0539 32.8017 87.0332 32.8432 87.0746 32.9054C87.0954 32.9676 87.1575 33.009 87.2405 33.0298C87.3234 33.0505 87.4477 33.0712 87.6135 33.0919C87.8001 33.1127 87.9245 33.1541 88.0488 33.1749C88.1732 33.1956 88.2768 33.2578 88.3805 33.3199C88.4841 33.3821 88.567 33.4858 88.6085 33.6101C88.6914 33.7967 88.7121 33.9832 88.6499 34.1491C88.5877 34.3356 88.4634 34.4807 88.2768 34.605C88.0903 34.7294 87.8623 34.7916 87.6135 34.7916V34.2527C87.7172 34.2527 87.8208 34.232 87.883 34.1905C87.9659 34.149 88.0074 34.0869 88.0281 34.0247C88.0488 33.9625 88.0488 33.9003 88.0281 33.8381C87.9866 33.776 87.9245 33.7138 87.8416 33.693C87.7586 33.6723 87.6136 33.6309 87.427 33.6101C87.2612 33.5894 87.1161 33.5687 87.0125 33.5272C86.9088 33.4858 86.8052 33.4443 86.7015 33.3821C86.5979 33.3199 86.5357 33.2163 86.4735 33.1127C86.4113 32.9261 86.3906 32.7603 86.4735 32.5737C86.5357 32.4079 86.6601 32.2628 86.8466 32.1385C87.0332 32.0348 87.2612 31.9727 87.5099 31.9727V32.5116V32.5323ZM87.8416 32.6152C87.7586 32.553 87.655 32.5323 87.5099 32.5323V31.9934C87.6965 31.9934 87.8623 32.0348 88.0074 32.097C88.1732 32.1592 88.2976 32.2628 88.4012 32.3872C88.5048 32.5116 88.567 32.6774 88.5877 32.8432H87.9867C87.9659 32.7396 87.9037 32.6567 87.8208 32.6152H87.8416Z" fill="#7EBC00"/>
<path d="M89.2923 31.4756C89.2094 31.4134 89.168 31.3097 89.168 31.2061C89.168 31.0817 89.2094 30.9988 89.2923 30.9366C89.3753 30.8745 89.4789 30.833 89.5825 30.833C89.6862 30.833 89.7898 30.8745 89.8727 30.9366C89.9556 30.9988 89.9971 31.1025 89.9971 31.2061C89.9971 31.3305 89.9556 31.4134 89.8727 31.4756C89.7898 31.5377 89.6862 31.5792 89.5825 31.5792C89.4789 31.5792 89.3753 31.5377 89.2923 31.4756ZM89.2302 34.7712V32.0352H89.9556V34.7712H89.2302Z" fill="#7EBC00"/>
<path d="M90.6396 34.7716V32.0356H91.3651V34.7716H90.6396ZM91.2615 32.8232C91.3237 32.5952 91.4273 32.4087 91.5931 32.2429C91.7589 32.0771 91.9662 31.9941 92.2357 31.9941L92.0491 32.6367C91.8626 32.6367 91.7382 32.6782 91.6346 32.7611C91.5309 32.844 91.4687 32.9476 91.4273 33.072C91.3858 33.1963 91.3651 33.3207 91.3651 33.4451H91.1786C91.1786 33.2585 91.22 33.0512 91.2822 32.8232H91.2615ZM92.2357 31.9941C92.4222 31.9941 92.5673 32.0356 92.7124 32.1392C92.8575 32.2429 92.9611 32.388 93.044 32.5745C93.127 32.7611 93.1684 32.9891 93.1684 33.2585V34.7716H92.443V33.2585C92.443 33.0512 92.4015 32.9062 92.3393 32.8025C92.2771 32.6989 92.1735 32.6367 92.0284 32.6367L92.2149 31.9941H92.2357Z" fill="#7EBC00"/>
<path d="M94.3089 34.6265C94.1431 34.5229 93.998 34.3571 93.8943 34.1498C93.7907 33.9425 93.7285 33.6938 93.7285 33.4243C93.7285 33.1549 93.77 32.8854 93.8736 32.6781C93.9772 32.4709 94.1016 32.2843 94.2882 32.1807C94.4747 32.0771 94.6613 31.9941 94.8893 31.9941L95.0344 32.5745C94.8478 32.5745 94.7027 32.6574 94.5991 32.8025C94.4954 32.9476 94.454 33.1549 94.454 33.4036C94.454 33.6523 94.4954 33.8389 94.5991 33.984C94.7027 34.1291 94.8271 34.1913 95.0136 34.1913L94.8685 34.7716C94.6613 34.7716 94.4747 34.7094 94.3089 34.6058V34.6265ZM96.3817 32.0356V34.6887C96.3817 34.896 96.3402 35.0826 96.2366 35.2484C96.1329 35.4142 95.9878 35.5386 95.8013 35.6215C95.6147 35.7044 95.3867 35.7458 95.138 35.7458H94.1016V35.1655H95.138C95.3245 35.1655 95.4489 35.124 95.5318 35.0618C95.6147 34.9996 95.6562 34.8753 95.6562 34.7094V32.0563H96.3817V32.0356ZM95.0136 34.212C95.2209 34.212 95.366 34.1498 95.4696 34.0462C95.5733 33.9425 95.6355 33.7767 95.6355 33.5902L95.8427 33.6316C95.822 34.0047 95.7184 34.2949 95.5526 34.5022C95.3867 34.7094 95.1587 34.8131 94.8478 34.8131L94.9929 34.2327L95.0136 34.212ZM94.91 31.9941C95.2209 31.9941 95.4489 32.0978 95.6147 32.3258C95.7598 32.5538 95.8635 32.8647 95.8842 33.2793L95.6562 33.3207C95.6562 33.0927 95.594 32.9062 95.4904 32.7818C95.3867 32.6574 95.2416 32.5745 95.0344 32.5745L94.8893 31.9941H94.91Z" fill="#7EBC00"/>
<path d="M68.8135 34.7716V32.0356H69.5389V34.7716H68.8135ZM69.4353 32.8232C69.4975 32.5952 69.6011 32.4087 69.7669 32.2429C69.9328 32.0771 70.14 31.9941 70.4095 31.9941L70.223 32.6367C70.0364 32.6367 69.912 32.6782 69.8084 32.7611C69.7048 32.844 69.6426 32.9476 69.6011 33.072C69.5597 33.1963 69.5389 33.3207 69.5389 33.4451H69.3524C69.3524 33.2585 69.3938 33.0512 69.456 32.8232H69.4353ZM70.4302 31.9941C70.6168 31.9941 70.7619 32.0356 70.907 32.1392C71.0521 32.2429 71.1557 32.388 71.2386 32.5745C71.3215 32.7611 71.363 32.9891 71.363 33.2585V34.7716H70.6375V33.2585C70.6375 33.0512 70.5961 32.9062 70.5339 32.8025C70.4717 32.6989 70.368 32.6367 70.223 32.6367L70.4095 31.9941H70.4302Z" fill="#7EBC00"/>
<path d="M74.576 34.7716H73.8505V30.8955H74.576V34.7716ZM73.2494 32.5952L73.1043 32.0148C73.4152 32.0148 73.6432 32.1184 73.8091 32.3464C73.9542 32.5744 74.0578 32.8854 74.0785 33.2999L73.8505 33.3414C73.8505 33.1134 73.7883 32.9268 73.6847 32.8024C73.5811 32.6781 73.436 32.5952 73.2287 32.5952H73.2494ZM73.0836 34.7923L73.2287 34.2119C73.436 34.2119 73.5811 34.1497 73.6847 34.0461C73.7883 33.9425 73.8505 33.7766 73.8505 33.5901L74.0578 33.6316C74.0371 34.0046 73.9334 34.2948 73.7676 34.5021C73.6018 34.7094 73.3738 34.813 73.0629 34.813L73.0836 34.7923ZM73.0629 34.7923C72.8556 34.7923 72.669 34.7301 72.5032 34.6265C72.3374 34.5228 72.1923 34.357 72.0887 34.1497C71.985 33.9425 71.9229 33.6937 71.9229 33.4243C71.9229 33.1548 71.9643 32.8854 72.0679 32.6781C72.1716 32.4708 72.296 32.2843 72.4825 32.1806C72.669 32.0563 72.8556 31.9941 73.0836 31.9941L73.2287 32.5744C73.0421 32.5744 72.8971 32.6574 72.7934 32.8024C72.6898 32.9475 72.6483 33.1548 72.6483 33.4035C72.6483 33.6523 72.6898 33.8388 72.7934 33.9839C72.8971 34.129 73.0214 34.1912 73.208 34.1912L73.0629 34.7716V34.7923Z" fill="#7EBC00"/>
<path d="M66.1399 34.6265C65.9741 34.5229 65.829 34.3571 65.7254 34.1498C65.6218 33.9425 65.5596 33.6938 65.5596 33.4243C65.5596 33.1549 65.601 32.8854 65.7047 32.6781C65.8083 32.4709 65.9327 32.2843 66.1192 32.1807C66.3058 32.0563 66.4923 31.9941 66.7203 31.9941L66.8654 32.5745C66.6789 32.5745 66.5338 32.6574 66.4301 32.8025C66.3265 32.9476 66.285 33.1549 66.285 33.4036C66.285 33.6523 66.3265 33.8389 66.4301 33.984C66.5338 34.1291 66.6581 34.1913 66.8447 34.1913L66.6996 34.7716C66.4923 34.7716 66.3058 34.7094 66.1399 34.6058V34.6265ZM66.8447 34.212C67.052 34.212 67.197 34.1498 67.3007 34.0462C67.4043 33.9425 67.4665 33.7767 67.4665 33.5902L67.6738 33.6316C67.6531 34.0047 67.5494 34.2949 67.3836 34.5022C67.2178 34.7094 66.9898 34.8131 66.6789 34.8131L66.8239 34.2327L66.8447 34.212ZM66.741 31.9941C67.052 31.9941 67.28 32.0978 67.4458 32.3258C67.5909 32.5538 67.6945 32.8647 67.7152 33.2793L67.4872 33.3207C67.4872 33.0927 67.4251 32.9062 67.3214 32.7818C67.2178 32.6574 67.0727 32.5745 66.8654 32.5745L66.7203 31.9941H66.741ZM67.4872 34.7716V32.0356H68.2127V34.7716H67.4872Z" fill="#7EBC00"/>
</svg>
